<?xml version="1.0" standalone="no"?>
<!DOCTYPE svg PUBLIC "-//W3C//DTD SVG 20010904//EN"
 "http://www.w3.org/TR/2001/REC-SVG-20010904/DTD/svg10.dtd">
<svg version="1.0" xmlns="http://www.w3.org/2000/svg"
 width="1024.000000pt" height="1024.000000pt" viewBox="0 0 1024.000000 1024.000000"
 preserveAspectRatio="xMidYMid meet">

<g transform="translate(0.000000,1024.000000) scale(0.100000,-0.100000)"
fill="#000000" stroke="none">
<path d="M5037 9571 c-30 -16 -355 -209 -723 -429 -3279 -1962 -2968 -1774
-2998 -1815 l-21 -28 0 -2212 c0 -2194 0 -2212 20 -2245 15 -26 73 -65 250
-169 127 -75 394 -234 595 -353 201 -119 493 -293 650 -385 500 -294 1237
-731 1690 -1002 550 -328 560 -333 619 -333 28 0 66 6 84 13 18 8 223 128 457
267 234 139 592 352 795 473 204 121 474 282 600 357 127 75 419 249 650 387
1270 755 1216 722 1231 758 21 51 21 4409 0 4459 -12 30 -59 61 -378 251
-1514 906 -2709 1622 -3113 1865 -315 190 -315 190 -408 141z m933 -753 c371
-223 866 -519 1100 -658 234 -139 619 -369 855 -510 237 -141 474 -282 528
-314 53 -31 97 -61 97 -66 0 -11 8 -6 -240 -150 -107 -62 -394 -231 -636 -376
-243 -144 -451 -267 -463 -273 -22 -12 -70 14 -766 429 -126 75 -331 197 -455
270 -487 288 -608 359 -677 400 l-73 42 0 812 c0 447 3 816 7 819 3 4 16 1 27
-6 12 -8 325 -196 696 -419z m-972 -390 c2 -687 0 -807 -12 -817 -16 -13 -421
-255 -1181 -704 -269 -159 -550 -325 -623 -369 -76 -45 -139 -77 -148 -74 -8
3 -202 117 -432 252 -229 136 -523 309 -652 385 -129 76 -244 144 -254 152
-18 13 0 25 230 162 602 358 1421 847 2204 1317 465 279 850 506 855 504 7 -2
11 -282 13 -808z m351 -1152 c113 -68 343 -204 511 -303 786 -464 1090 -646
1090 -654 0 -5 -17 -17 -37 -28 -42 -21 -171 -97 -588 -342 -1238 -731 -1207
-713 -1229 -699 -64 40 -902 534 -1471 866 -181 105 -330 196 -329 201 0 4
148 96 330 204 181 108 590 352 909 542 319 190 586 344 594 341 7 -2 106 -60
220 -128z m-3564 -353 c94 -55 294 -173 445 -263 151 -90 352 -208 445 -263
94 -55 182 -109 198 -119 l27 -19 0 -1164 0 -1163 -157 -93 c-87 -51 -389
-232 -672 -401 -283 -169 -518 -305 -522 -302 -10 6 -12 3907 -2 3917 3 4 20
-2 37 -12 17 -10 108 -63 201 -118z m6903 -1823 c1 -1069 -1 -1947 -5 -1951
-5 -4 -89 40 -188 98 -487 286 -1094 648 -1122 670 l-33 24 0 1153 c0 907 3
1156 13 1168 6 9 235 148 507 309 272 161 565 334 650 385 85 51 160 92 165
90 7 -2 11 -661 13 -1946z m-5081 751 c252 -147 548 -321 658 -386 110 -65
225 -133 255 -150 85 -48 400 -235 443 -262 l37 -23 0 -1085 c0 -596 -3 -1086
-7 -1088 -5 -3 -73 35 -153 83 -153 92 -524 311 -975 575 -148 87 -340 199
-425 250 -85 50 -182 107 -215 125 -33 18 -68 40 -77 48 -17 14 -18 79 -18
1092 0 592 3 1080 7 1083 3 4 8 7 9 7 2 0 209 -121 461 -269z m3488 -825 l0
-1088 -210 -122 c-185 -108 -419 -247 -1390 -822 -132 -78 -243 -139 -248
-135 -4 4 -6 493 -5 1087 l3 1079 200 119 c110 66 387 230 615 366 228 136
550 328 715 427 165 99 305 179 310 178 7 -1 10 -372 10 -1089z m-3655 -1536
c374 -221 777 -459 1065 -630 72 -43 212 -126 313 -185 l182 -108 0 -813 c0
-447 -4 -815 -8 -818 -4 -2 -62 28 -127 68 -66 40 -309 185 -540 321 -231 136
-451 267 -490 290 -38 24 -225 135 -415 247 -190 113 -552 328 -805 478 -253
150 -509 302 -570 338 -287 169 -375 224 -375 231 0 5 42 33 93 63 135 81
1207 718 1242 739 16 10 32 16 35 15 3 -2 183 -108 400 -236z m4027 92 c136
-82 327 -195 423 -252 556 -329 666 -395 679 -406 11 -10 8 -15 -20 -30 -19
-9 -81 -45 -139 -79 -334 -198 -1012 -603 -1385 -825 -500 -299 -705 -422
-1050 -625 -137 -82 -355 -211 -483 -288 -142 -84 -237 -136 -243 -130 -5 5
-8 335 -7 812 l3 804 95 57 c52 31 280 166 505 300 226 133 532 315 680 403
268 160 688 407 692 407 1 0 113 -67 250 -148z"/>
</g>
</svg>
